
<svg width="1440" height="400" viewBox="0 0 1440 400" fill="none" xmlns="http://www.w3.org/2000/svg">
  <path d="M-13 174L59.3 120.7C131.7 67.3 276.3 -39.3 421 24.7C565.7 88.7 710.3 322.3 855 328.7C999.7 335 1144.3 114 1288.7 60.7L1433 7.3" stroke="rgba(59, 130, 246, 0.2)" stroke-width="2"/>
  <path d="M-13 274L59.3 220.7C131.7 167.3 276.3 60.7 421 124.7C565.7 188.7 710.3 422.3 855 428.7C999.7 435 1144.3 214 1288.7 160.7L1433 107.3" stroke="rgba(139, 92, 246, 0.15)" stroke-width="2"/>
  <path d="M-13 374L59.3 320.7C131.7 267.3 276.3 160.7 421 224.7C565.7 288.7 710.3 522.3 855 528.7C999.7 535 1144.3 314 1288.7 260.7L1433 207.3" stroke="rgba(61, 199, 134, 0.1)" stroke-width="2"/>
</svg>
